<?xml version="1.0" encoding="UTF-8" standalone="no"?>
<svg
   xmlns:dc="http://purl.org/dc/elements/1.1/"
   xmlns:cc="http://creativecommons.org/ns#"
   xmlns:rdf="http://www.w3.org/1999/02/22-rdf-syntax-ns#"
   xmlns:svg="http://www.w3.org/2000/svg"
   xmlns="http://www.w3.org/2000/svg"
   viewBox="0 0 1280 1280"
   height="1280"
   width="1280"
   xml:space="preserve"
   id="svg2"
   version="1.1"><metadata
     id="metadata8"><rdf:RDF><cc:Work
         rdf:about=""><dc:format>image/svg+xml</dc:format><dc:type
           rdf:resource="http://purl.org/dc/dcmitype/StillImage" /></cc:Work></rdf:RDF></metadata><defs
     id="defs6" /><g
     transform="matrix(1.3333333,0,0,-1.3333333,0,1280)"
     id="g10"><g
       transform="scale(0.1)"
       id="g12"><path
         id="path14"
         style="fill:#ffffff;fill-opacity:1;fill-rule:nonzero;stroke:none"
         d="M 9600,0 H 0 V 9600 H 9600 V 0" /><path
         id="path16"
         style="fill:#66232f;fill-opacity:1;fill-rule:nonzero;stroke:none"
         d="M 5951.41,5534.15 H 4240.02 v 1729.77 c 0,472.59 383.11,855.69 855.7,855.69 v 0 c 472.58,0 855.69,-383.1 855.69,-855.69 V 5534.15" /><path
         id="path18"
         style="fill:#42bdac;fill-opacity:1;fill-rule:nonzero;stroke:none"
         d="m 3656.38,3630.16 -104.24,40.97 c -29.15,11.45 -43.49,44.37 -32.03,73.52 l 937.38,2385.05 c 11.46,29.15 44.38,43.49 73.53,32.03 l 104.23,-40.97 c 29.15,-11.45 43.49,-44.37 32.04,-73.52 L 3729.9,3662.19 c -11.46,-29.14 -44.37,-43.49 -73.52,-32.03" /><path
         id="path20"
         style="fill:#d75361;fill-opacity:1;fill-rule:nonzero;stroke:none"
         d="M 5324.98,1776.14 H 4760.54 V 3790.3 h 877.07 L 5324.98,1776.14" /><path
         id="path22"
         style="fill:#ccaa76;fill-opacity:1;fill-rule:nonzero;stroke:none"
         d="m 4760.54,1776.14 v 269.94 h 606.34 l -41.9,-269.94 h -564.44" /><path
         id="path24"
         style="fill:#c82562;fill-opacity:1;fill-rule:nonzero;stroke:none"
         d="m 4760.54,1776.14 v -295.75 h 564.44 v 295.75 h -564.44" /><path
         id="path26"
         style="fill:#c82562;fill-opacity:1;fill-rule:nonzero;stroke:none"
         d="m 5324.7,1905.11 v 0 c -163.57,0 -296.16,-132.6 -296.16,-296.17 v -128.55 h 592.33 v 128.55 c 0,163.57 -132.6,296.17 -296.17,296.17" /><path
         id="path28"
         style="fill:#f68998;fill-opacity:1;fill-rule:nonzero;stroke:none"
         d="M 5951.81,4887.53 H 5528.68 V 4421.7 h 181.05 c 133.7,0 242.08,108.38 242.08,242.08 v 223.75" /><path
         id="path30"
         style="fill:#7f5598;fill-opacity:1;fill-rule:nonzero;stroke:none"
         d="m 5529.31,6049.31 h -0.63 V 4871.25 h 424.39 v 754.3 c 0,234.04 -189.72,423.76 -423.76,423.76" /><path
         id="path32"
         style="fill:#f68998;fill-opacity:1;fill-rule:nonzero;stroke:none"
         d="M 4795.61,1776.14 H 4309.33 V 3790.3 h 877.06 L 4795.61,1776.14" /><path
         id="path34"
         style="fill:#fcd591;fill-opacity:1;fill-rule:nonzero;stroke:none"
         d="m 4309.33,1776.14 h 486.28 l 52.37,269.94 h -538.65 v -269.94" /><path
         id="path36"
         style="fill:#ef2e7b;fill-opacity:1;fill-rule:nonzero;stroke:none"
         d="m 4309.33,1480.39 h 486.28 v 295.75 h -486.28 v -295.75" /><path
         id="path38"
         style="fill:#ef2e7b;fill-opacity:1;fill-rule:nonzero;stroke:none"
         d="m 4661.8,1905.11 v 0 c -140.2,0 -253.85,-113.66 -253.85,-253.86 v -170.86 h 507.71 v 170.86 c 0,140.2 -113.65,253.86 -253.86,253.86" /><path
         id="path40"
         style="fill:#fcd591;fill-opacity:1;fill-rule:nonzero;stroke:none"
         d="M 4093.7,2563.07 H 5848.35 V 3849.61 H 4093.17 l 0.53,-1286.54" /><path
         id="path42"
         style="fill:#7f5598;fill-opacity:1;fill-rule:nonzero;stroke:none"
         d="m 4970.76,6351.52 v 0 c -484.39,0 -877.06,-392.67 -877.06,-877.06 V 3849.61 h 1754.13 v 1624.85 c 0,484.39 -392.68,877.06 -877.07,877.06" /><path
         id="path44"
         style="fill:#52c5b7;fill-opacity:1;fill-rule:nonzero;stroke:none"
         d="m 4645.61,2863.87 h -929.78 c -124.17,0 -224.82,100.65 -224.82,224.81 v 586.78 c 0,124.17 100.65,224.82 224.82,224.82 h 929.78 c 124.16,0 224.82,-100.65 224.82,-224.82 v -586.78 c 0,-124.16 -100.66,-224.81 -224.82,-224.81" /><path
         id="path46"
         style="fill:#42bdac;fill-opacity:1;fill-rule:nonzero;stroke:none"
         d="m 4749.07,3630.16 -104.23,40.97 c -29.15,11.45 -43.49,44.37 -32.04,73.52 l 937.39,2385.05 c 11.45,29.15 44.37,43.49 73.52,32.03 l 104.24,-40.97 c 29.14,-11.45 43.49,-44.37 32.03,-73.52 L 4822.6,3662.19 c -11.46,-29.14 -44.38,-43.49 -73.53,-32.03" /><path
         id="path48"
         style="fill:#f68998;fill-opacity:1;fill-rule:nonzero;stroke:none"
         d="m 5315.22,6538.8 v -237.58 c 0,-89.98 -36.1,-171.33 -95.36,-230.59 -58.72,-60.88 -141.69,-98.05 -233.28,-98.05 -181.56,0 -328.64,147.08 -328.64,328.64 v 237.58 h 657.28" /><path
         id="path50"
         style="fill:#f68998;fill-opacity:1;fill-rule:nonzero;stroke:none"
         d="m 5303.92,6305.96 h -645.99 v 819.18 c 0,319.21 258.77,577.98 577.98,577.98 h 68.01 c 319.21,0 577.98,-258.77 577.98,-577.98 v -241.2 c 0,-319.21 -258.77,-577.98 -577.98,-577.98" /><path
         id="path52"
         style="fill:#66232f;fill-opacity:1;fill-rule:nonzero;stroke:none"
         d="m 4523.85,7703.12 h 571.87 v -92.04 l -274.71,-274.71 v -279.75 h -238.35 l -58.81,646.5" /><path
         id="path54"
         style="fill:#7f5598;fill-opacity:1;fill-rule:nonzero;stroke:none"
         d="m 4416.24,6072.81 v 0 L 3993.49,4415.26 3589.69,4518.25 3909.46,5772 c 56.87,223.01 283.77,357.69 506.78,300.81" /><path
         id="path56"
         style="fill:#ffffff;fill-opacity:1;fill-rule:nonzero;stroke:none"
         d="m 5734.93,6795.95 c 0,-145.42 -117.88,-263.3 -263.3,-263.3 -145.42,0 -263.3,117.88 -263.3,263.3 h 526.6" /><path
         id="path58"
         style="fill:#f68998;fill-opacity:1;fill-rule:nonzero;stroke:none"
         d="m 4736.08,6747.18 h -153.42 c -84.73,0 -153.42,68.69 -153.42,153.43 v 119.6 c 0,84.74 68.69,153.43 153.42,153.43 v 0 c 84.74,0 153.42,-68.69 153.42,-153.43 v -273.03" /><path
         id="path60"
         style="fill:#f68998;fill-opacity:1;fill-rule:nonzero;stroke:none"
         d="m 3596.76,4576.45 v 0 c 29.83,112.97 145.6,180.37 258.57,150.54 l 789.68,-208.53 -108.03,-409.11 -789.68,208.53 c -112.98,29.83 -180.38,145.6 -150.54,258.57" /><path
         id="path62"
         style="fill:#ef2e7b;fill-opacity:1;fill-rule:nonzero;stroke:none"
         d="m 4475.91,5479.99 c -31.93,0 -57.86,-20.48 -57.86,-45.7 v -150.47 c 0,-25.26 25.93,-45.71 57.86,-45.71 h 1384.85 v 241.88 H 4475.91" /><path
         id="path64"
         style="fill:#ffffff;fill-opacity:1;fill-rule:nonzero;stroke:none"
         d="m 5024.52,5467.27 c -31.71,0 -57.42,-20.06 -57.9,-44.97 v -130.52 c 0,-25.29 25.88,-45.73 57.9,-45.73 h 836.24 v 221.22 h -836.24" /><path
         id="path66"
         style="fill:#ef2e7b;fill-opacity:1;fill-rule:nonzero;stroke:none"
         d="m 4329.69,4722.33 c -34.45,0 -62.44,-22.1 -62.44,-49.31 v -138.53 c 0,-27.25 27.99,-49.32 62.44,-49.32 h 1531.07 v 237.16 H 4329.69" /><path
         id="path68"
         style="fill:#ffffff;fill-opacity:1;fill-rule:nonzero;stroke:none"
         d="m 5495.4,4708.6 c -34.22,0 -61.95,-21.64 -62.47,-48.51 v -117.01 c 0,-27.29 27.92,-49.34 62.47,-49.34 h 365.36 V 4708.6 H 5495.4" /><path
         id="path70"
         style="fill:#1c2430;fill-opacity:1;fill-rule:nonzero;stroke:none"
         d="M 5540.5,4986.34 H 4267.25 V 4722.33 H 5540.5 c 38.34,0 69.5,24.56 69.5,54.9 v 154.22 c 0,30.29 -31.16,54.89 -69.5,54.89" /><path
         id="path72"
         style="fill:#ffffff;fill-opacity:1;fill-rule:nonzero;stroke:none"
         d="m 4839.84,4971.06 h -572.59 v -239.2 h 572.59 c 38.46,0 69.55,24.56 69.55,54.93 v 130.26 c -0.58,29.92 -31.45,54.01 -69.55,54.01" /><path
         id="path74"
         style="fill:#ffffff;fill-opacity:1;fill-rule:nonzero;stroke:none"
         d="M 5720.2,5018.25 H 4336.58 v 184.14 H 5720.2 c 25.54,0 46.25,-20.71 46.25,-46.25 v -91.64 c 0,-25.55 -20.71,-46.25 -46.25,-46.25" /><path
         id="path76"
         style="fill:#52c5b7;fill-opacity:1;fill-rule:nonzero;stroke:none"
         d="M 5689.33,4986.34 H 4308.61 v 35.73 h 1380.72 c 37.78,0 68.52,32.71 68.52,72.93 v 34.45 c 0,40.22 -30.74,72.94 -68.52,72.94 H 4308.61 v 35.72 h 1380.72 c 56.29,0 102.08,-48.74 102.08,-108.66 V 5095 c 0,-59.91 -45.79,-108.66 -102.08,-108.66" /><path
         id="path78"
         style="fill:#f68998;fill-opacity:1;fill-rule:nonzero;stroke:none"
         d="m 4742.39,4603.01 c 176.43,1.19 320.42,-140.87 321.61,-317.3 1.19,-176.43 -140.87,-320.42 -317.3,-321.61 -176.43,-1.19 -320.42,140.87 -321.61,317.3 -1.18,176.43 140.88,320.42 317.3,321.61" /><path
         id="path80"
         style="fill:#f68998;fill-opacity:1;fill-rule:nonzero;stroke:none"
         d="m 5470.07,4294.08 c 0,-176.43 143.03,-319.46 319.46,-319.46 176.43,0 319.46,143.03 319.46,319.46 0,176.43 -143.03,319.46 -319.46,319.46 -176.43,0 -319.46,-143.03 -319.46,-319.46" /><path
         id="path82"
         style="fill:#862b3c;fill-opacity:1;fill-rule:nonzero;stroke:none"
         d="m 5392.95,7754.22 c 0,-18.85 -7.01,-36.09 -19.94,-49.02 -7,-7.54 -16.17,-14.01 -26.94,-17.24 -2.16,-1.08 -4.31,-1.62 -7,-2.15 -136.84,-30.17 -257.52,-109.91 -343.73,-220.89 -87.81,-112.07 -140.61,-256.99 -140.61,-414.84 v -1415.3 c 0,-36.63 -29.63,-66.27 -66.27,-66.27 -36.63,0 -66.26,29.64 -66.26,66.27 v 1415.3 c 0,374.97 245.13,689.06 573.23,769.87 4.31,1.08 9.15,2.16 13.47,3.24 43.1,9.69 84.05,-24.79 84.05,-68.97" /><path
         id="path84"
         style="fill:#862b3c;fill-opacity:1;fill-rule:nonzero;stroke:none"
         d="m 5392.95,7754.22 c 0,-18.85 -7.01,-36.09 -19.94,-49.02 -9.16,-5.39 -18.32,-11.32 -26.94,-17.24 -170.78,-114.76 -285,-318.4 -285,-550.61 V 5722.06 c 0,-36.1 -29.63,-66.27 -66.27,-66.27 -36.63,0 -66.26,30.17 -66.26,66.27 v 1415.29 c 0,116.92 23.7,227.36 66.8,327.57 63.58,148.69 168.64,272.6 300.09,355.03 4.31,1.08 9.15,2.16 13.47,3.24 43.1,9.69 84.05,-24.79 84.05,-68.97" /></g></g></svg>